<?xml version="1.0" encoding="utf-8"?>
<!-- Generator: Adobe Illustrator 24.0.0, SVG Export Plug-In . SVG Version: 6.00 Build 0)  -->
<svg version="1.1" id="Calque_1" xmlns="http://www.w3.org/2000/svg" xmlns:xlink="http://www.w3.org/1999/xlink" x="0px" y="0px"
	 viewBox="0 0 253.3 87.75" style="enable-background:new 0 0 253.3 87.75;" xml:space="preserve">
<style type="text/css">
	.st0{fill:#5C96C9;}
	.st1{fill:#515256;}
	.st2{fill:#D14D34;}
</style>
<g>
	<g>
		<g>
			<path class="st0" d="M110.68,43.95h-5.09V27.37l-8.96,15.73c-0.2,0.41-0.53,0.73-0.94,0.94c-0.37,0.2-0.81,0.33-1.26,0.33
				s-0.86-0.12-1.22-0.33c-0.37-0.2-0.69-0.53-0.9-0.94l-9-15.73v16.58h-5.05V18.24c0-0.57,0.16-1.1,0.53-1.55
				c0.33-0.45,0.77-0.77,1.34-0.9c0.24-0.08,0.53-0.12,0.81-0.08c0.24,0,0.53,0.08,0.77,0.16c0.24,0.12,0.49,0.24,0.69,0.41
				c0.2,0.2,0.37,0.41,0.53,0.65L94.42,36.9l11.49-19.96c0.33-0.49,0.73-0.86,1.26-1.06s1.06-0.24,1.63-0.08
				c0.53,0.12,0.98,0.45,1.34,0.9c0.37,0.45,0.53,0.98,0.53,1.55V43.95z"/>
			<path class="st0" d="M145.8,32.66c0,1.71-0.33,3.26-0.9,4.69c-0.57,1.43-1.39,2.69-2.4,3.71c-1.06,1.02-2.28,1.83-3.71,2.4
				c-1.43,0.57-2.97,0.9-4.64,0.9h-6.8c-1.67,0-3.22-0.33-4.64-0.9c-1.43-0.57-2.65-1.39-3.71-2.4c-1.02-1.02-1.83-2.28-2.44-3.71
				c-0.57-1.43-0.86-2.97-0.86-4.69v-5.3c0-1.71,0.29-3.26,0.86-4.69c0.61-1.43,1.43-2.65,2.44-3.67c1.06-1.06,2.28-1.87,3.71-2.44
				c1.43-0.57,2.97-0.86,4.64-0.86h6.8c1.67,0,3.22,0.29,4.64,0.86c1.43,0.57,2.65,1.39,3.71,2.44c1.02,1.02,1.83,2.24,2.4,3.67
				c0.57,1.43,0.9,2.97,0.9,4.69V32.66z M140.74,27.37c0-1.02-0.16-1.91-0.49-2.73c-0.33-0.81-0.77-1.51-1.34-2.08
				c-0.57-0.57-1.26-1.02-2.08-1.34c-0.81-0.29-1.71-0.45-2.69-0.45h-6.8c-1.02,0-1.91,0.16-2.69,0.45
				c-0.81,0.33-1.51,0.77-2.12,1.34c-0.57,0.57-1.02,1.26-1.34,2.08c-0.33,0.81-0.45,1.71-0.45,2.73v5.3c0,1.02,0.12,1.91,0.45,2.73
				c0.33,0.81,0.77,1.51,1.34,2.08c0.61,0.57,1.3,1.02,2.12,1.34c0.77,0.33,1.67,0.49,2.69,0.49h6.8c0.98,0,1.87-0.16,2.69-0.49
				c0.77-0.33,1.51-0.77,2.08-1.34c0.57-0.57,1.02-1.26,1.34-2.08c0.33-0.81,0.49-1.71,0.49-2.73V27.37z"/>
			<path class="st0" d="M175.94,43.95h-18.21c-0.69,0-1.47-0.12-2.32-0.37c-0.81-0.24-1.59-0.65-2.28-1.22
				c-0.69-0.57-1.3-1.3-1.75-2.2c-0.49-0.9-0.73-2-0.73-3.3V18.65c0-0.37,0.08-0.69,0.2-1.02c0.12-0.29,0.29-0.57,0.53-0.81
				c0.24-0.2,0.49-0.41,0.81-0.53c0.29-0.12,0.65-0.2,1.02-0.2h22.73v5.05H155.7v15.73c0,0.65,0.16,1.18,0.53,1.51
				c0.37,0.37,0.86,0.53,1.55,0.53h18.17V43.95z M173.66,32.58h-15.93v-5.09h15.93V32.58z"/>
			<path class="st0" d="M208.62,41.79c0,0.37,0,0.69-0.16,1.02c-0.16,0.29-0.33,0.57-0.49,0.81c-0.33,0.2-0.49,0.41-0.81,0.53
				c-0.33,0.12-0.65,0.2-0.98,0.2s-0.65-0.08-0.98-0.2c-0.33-0.12-0.65-0.29-0.81-0.57l-18.5-19.27v19.64h-5.05V18.24
				c0-0.53,0.16-0.98,0.45-1.39c0.29-0.45,0.65-0.73,1.1-0.98c0.49-0.16,0.98-0.2,1.47-0.12c0.53,0.08,0.94,0.33,1.3,0.69
				l18.41,19.27V16.08h5.05V41.79z"/>
			<path class="st0" d="M242.35,41.79c0,0.37-0.08,0.69-0.24,1.02c-0.16,0.29-0.33,0.57-0.57,0.81c-0.16,0.2-0.49,0.41-0.73,0.53
				c-0.33,0.12-0.65,0.2-1.06,0.2c-0.24,0-0.57-0.08-0.9-0.2c-0.33-0.12-0.65-0.29-0.9-0.57l-18.41-19.27v19.64h-5.05V18.24
				c0-0.53,0.16-0.98,0.41-1.39c0.33-0.45,0.73-0.73,1.14-0.98c0.49-0.16,0.98-0.2,1.47-0.12c0.49,0.08,0.98,0.33,1.3,0.69
				l18.5,19.27V16.08h5.05V41.79z"/>
		</g>
		<g>
			<g>
				<path class="st1" d="M88.52,50.38v1.71h-4.52v14.42h-2.08V52.1h-4.56v-1.71H88.52z"/>
				<path class="st1" d="M92.67,52.1v5.5h6.11v1.59h-6.11v5.62h6.8v1.71h-8.88V50.38h8.88v1.71H92.67z"/>
				<path class="st1" d="M114.14,51.69c1.3,0.98,2.2,2.28,2.69,3.99h-2.2c-0.41-1.1-1.1-1.96-2-2.57c-0.94-0.65-2.04-0.94-3.38-0.94
					c-1.02,0-1.96,0.24-2.81,0.73c-0.81,0.53-1.47,1.26-1.96,2.2c-0.49,0.98-0.73,2.08-0.73,3.38c0,1.26,0.24,2.36,0.73,3.3
					c0.49,0.94,1.14,1.67,1.96,2.16c0.86,0.53,1.79,0.77,2.81,0.77c1.34,0,2.44-0.33,3.38-0.94c0.9-0.65,1.59-1.47,2-2.57h2.2
					c-0.49,1.71-1.39,3.01-2.69,3.99c-1.26,0.94-2.89,1.43-4.85,1.43c-1.51,0-2.85-0.33-3.99-1.02c-1.18-0.69-2.08-1.67-2.73-2.89
					c-0.65-1.26-0.98-2.69-0.98-4.24c0-1.63,0.33-3.06,0.98-4.28c0.65-1.26,1.55-2.24,2.73-2.93c1.14-0.69,2.49-1.02,3.99-1.02
					C111.25,50.26,112.88,50.71,114.14,51.69z"/>
				<path class="st1" d="M131.95,50.38v16.13h-2.08v-7.46h-8.19v7.46h-2.08V50.38h2.08v7.01h8.19v-7.01H131.95z"/>
				<path class="st1" d="M147.79,66.52h-2.08l-8.35-12.71v12.71h-2.08V50.38h2.08l8.35,12.79V50.38h2.08V66.52z"/>
				<path class="st1" d="M162.58,51.24c1.22,0.69,2.16,1.67,2.81,2.93c0.69,1.26,1.06,2.69,1.06,4.28s-0.37,3.01-1.06,4.28
					c-0.65,1.22-1.59,2.2-2.81,2.93c-1.18,0.69-2.53,1.02-4.03,1.02c-1.47,0-2.85-0.33-4.03-1.02c-1.22-0.73-2.16-1.71-2.85-2.93
					c-0.69-1.26-1.06-2.69-1.06-4.28s0.37-3.01,1.06-4.28c0.69-1.26,1.63-2.24,2.85-2.93c1.18-0.69,2.57-1.06,4.03-1.06
					C160.06,50.18,161.4,50.55,162.58,51.24z M155.57,52.91c-0.9,0.49-1.55,1.22-2.08,2.2c-0.49,0.94-0.73,2.08-0.73,3.34
					c0,1.26,0.24,2.36,0.73,3.34c0.53,0.94,1.18,1.67,2.08,2.2c0.86,0.53,1.87,0.77,2.97,0.77s2.08-0.29,2.97-0.77
					c0.86-0.53,1.55-1.26,2.04-2.2c0.49-0.98,0.77-2.08,0.77-3.34c0-1.26-0.29-2.4-0.77-3.34c-0.49-0.98-1.18-1.71-2.04-2.2
					c-0.9-0.53-1.87-0.77-2.97-0.77S156.43,52.38,155.57,52.91z"/>
				<path class="st1" d="M171.3,64.89h5.7v1.63h-7.78V50.38h2.08V64.89z"/>
				<path class="st1" d="M190.57,51.24c1.22,0.69,2.16,1.67,2.81,2.93c0.69,1.26,1.06,2.69,1.06,4.28s-0.37,3.01-1.06,4.28
					c-0.65,1.22-1.59,2.2-2.81,2.93c-1.18,0.69-2.53,1.02-4.03,1.02c-1.47,0-2.85-0.33-4.03-1.02c-1.22-0.73-2.16-1.71-2.85-2.93
					c-0.69-1.26-1.06-2.69-1.06-4.28s0.37-3.01,1.06-4.28c0.69-1.26,1.63-2.24,2.85-2.93c1.18-0.69,2.57-1.06,4.03-1.06
					C188.04,50.18,189.39,50.55,190.57,51.24z M183.56,52.91c-0.9,0.49-1.55,1.22-2.08,2.2c-0.49,0.94-0.73,2.08-0.73,3.34
					c0,1.26,0.24,2.36,0.73,3.34c0.53,0.94,1.18,1.67,2.08,2.2c0.86,0.53,1.87,0.77,2.97,0.77s2.08-0.29,2.97-0.77
					c0.86-0.53,1.55-1.26,2.04-2.2c0.49-0.98,0.77-2.08,0.77-3.34c0-1.26-0.29-2.4-0.77-3.34c-0.49-0.98-1.18-1.71-2.04-2.2
					c-0.9-0.53-1.87-0.77-2.97-0.77S184.42,52.38,183.56,52.91z"/>
				<path class="st1" d="M209.27,51.65c1.3,0.94,2.12,2.2,2.61,3.79h-2.2c-0.41-0.98-1.06-1.75-1.87-2.36
					c-0.98-0.57-1.96-0.9-3.26-0.9c-1.06,0-2.04,0.29-2.89,0.77c-0.9,0.53-1.55,1.22-2.08,2.2c-0.49,0.94-0.73,2.04-0.73,3.34
					c0,1.3,0.24,2.4,0.77,3.38c0.49,0.94,1.18,1.67,2.08,2.2c0.9,0.49,1.87,0.73,3.1,0.73c0.98,0,1.87-0.2,2.69-0.61
					c0.81-0.45,1.47-1.06,2.04-1.87c0.57-0.81,0.9-1.75,0.9-2.85h-6.27v-1.59h8.07v1.96c-0.16,1.26-0.49,2.4-1.14,3.46
					c-0.65,1.02-1.63,1.87-2.69,2.44c-1.06,0.61-2.36,0.94-3.83,0.94c-1.47,0-2.89-0.37-4.07-1.06c-1.18-0.69-2.12-1.63-2.77-2.89
					c-0.65-1.22-1.02-2.65-1.02-4.24c0-1.63,0.37-3.06,1.02-4.28c0.65-1.26,1.59-2.2,2.77-2.93c1.18-0.69,2.61-1.02,4.07-1.02
					C206.42,50.26,207.97,50.71,209.27,51.65z"/>
				<path class="st1" d="M217.09,50.38v16.13h-2.12V50.38H217.09z"/>
				<path class="st1" d="M222.55,52.1v5.5h6.11v1.59h-6.11v5.62h6.84v1.71h-8.96V50.38h8.96v1.71H222.55z"/>
				<path class="st1" d="M241.62,64.48c-0.41,0.65-0.9,1.18-1.71,1.59c-0.73,0.41-1.63,0.61-2.77,0.61c-1.06,0-1.96-0.2-2.77-0.57
					c-0.9-0.41-1.55-0.94-2.04-1.63c-0.49-0.65-0.73-1.43-0.81-2.32h2.2c0,0.49,0.16,0.94,0.49,1.34c0.24,0.45,0.57,0.81,1.14,1.1
					c0.49,0.29,1.06,0.41,1.79,0.41c0.9,0,1.55-0.24,2.04-0.73c0.49-0.49,0.73-1.1,0.73-1.87c0-0.65-0.16-1.18-0.49-1.59
					c-0.33-0.41-0.73-0.73-1.3-0.98c-0.49-0.24-1.14-0.49-2.04-0.77c-0.98-0.33-1.79-0.65-2.44-0.94c-0.57-0.29-1.14-0.73-1.55-1.34
					c-0.49-0.61-0.65-1.39-0.65-2.36c0-0.81,0.16-1.55,0.57-2.2c0.41-0.65,0.98-1.14,1.71-1.51c0.81-0.33,1.71-0.53,2.69-0.53
					c1.63,0,2.85,0.41,3.75,1.18c0.98,0.77,1.55,1.75,1.63,2.93h-2.2c-0.16-0.65-0.49-1.22-0.98-1.71c-0.57-0.49-1.3-0.73-2.2-0.73
					c-0.81,0-1.47,0.24-2.04,0.65c-0.49,0.45-0.73,1.06-0.73,1.87c0,0.61,0.16,1.1,0.49,1.51c0.33,0.37,0.73,0.69,1.22,0.9
					c0.49,0.24,1.14,0.49,2.04,0.77c1.06,0.33,1.87,0.65,2.53,0.94c0.57,0.33,1.14,0.77,1.55,1.39c0.49,0.61,0.73,1.43,0.73,2.44
					C242.19,63.1,241.94,63.79,241.62,64.48z"/>
			</g>
		</g>
	</g>
	<g>
		<g>
			<g>
				<polygon class="st2" points="45.58,28.16 44.58,28.16 44.58,13.92 41.59,13.92 39.79,19.06 37.37,14.09 34.07,14.09 34.07,13.1 
					38,13.1 39.64,16.48 40.89,12.93 45.58,12.93 				"/>
			</g>
			<g>
				<polygon class="st2" points="33.05,28.12 32.05,28.12 32.05,16.53 34.81,16.53 34.81,17.52 33.05,17.52 				"/>
			</g>
			<g>
				<path class="st2" d="M35.68,16.36c0.34,0,0.62,0.28,0.62,0.62s-0.28,0.62-0.62,0.62s-0.62-0.28-0.62-0.62
					S35.34,16.36,35.68,16.36 M35.68,15.7c-0.71,0-1.28,0.58-1.28,1.28s0.58,1.28,1.28,1.28s1.28-0.58,1.28-1.28
					S36.39,15.7,35.68,15.7L35.68,15.7z"/>
			</g>
			<g>
				<path class="st2" d="M33.27,13.06c0.35,0,0.63,0.28,0.63,0.64c0,0.35-0.28,0.64-0.63,0.64c-0.35,0-0.64-0.28-0.64-0.64
					C32.63,13.34,32.92,13.06,33.27,13.06 M33.27,12.4c-0.72,0-1.3,0.58-1.3,1.3c0,0.72,0.58,1.3,1.3,1.3s1.3-0.58,1.3-1.3
					C34.57,12.98,33.98,12.4,33.27,12.4L33.27,12.4z"/>
			</g>
			<g>
				<path class="st2" d="M45.15,28.46c0.34,0,0.62,0.28,0.62,0.62c0,0.34-0.28,0.62-0.62,0.62c-0.34,0-0.62-0.28-0.62-0.62
					C44.53,28.73,44.81,28.46,45.15,28.46 M45.15,27.79c-0.71,0-1.28,0.58-1.28,1.28c0,0.71,0.58,1.28,1.28,1.28
					c0.71,0,1.28-0.58,1.28-1.28C46.44,28.37,45.86,27.79,45.15,27.79L45.15,27.79z"/>
			</g>
			<g>
				<path class="st2" d="M32.65,28.41c0.34,0,0.62,0.28,0.62,0.62s-0.28,0.62-0.62,0.62c-0.34,0-0.62-0.28-0.62-0.62
					S32.3,28.41,32.65,28.41 M32.65,27.75c-0.71,0-1.28,0.58-1.28,1.28c0,0.71,0.58,1.28,1.28,1.28c0.71,0,1.28-0.58,1.28-1.28
					C33.93,28.33,33.36,27.75,32.65,27.75L32.65,27.75z"/>
			</g>
		</g>
		<g>
			<g>
				<polygon class="st2" points="52.99,34.86 52.18,34.28 60.5,22.72 58.07,20.98 53.61,24.09 54.55,18.65 51.87,16.72 52.45,15.91 
					55.64,18.21 55,21.91 58.08,19.76 61.89,22.5 				"/>
			</g>
			<g>
				<polygon class="st2" points="42.84,27.5 42.04,26.92 48.81,17.51 51.04,19.12 50.46,19.93 49.03,18.9 				"/>
			</g>
			<g>
				<path class="st2" d="M51.49,19.38c0.13,0,0.25,0.04,0.36,0.12c0.28,0.2,0.34,0.59,0.14,0.87c-0.12,0.17-0.31,0.26-0.5,0.26
					c-0.13,0-0.25-0.04-0.36-0.12c-0.28-0.2-0.34-0.59-0.14-0.87C51.11,19.47,51.3,19.38,51.49,19.38 M51.49,18.72L51.49,18.72
					c-0.41,0-0.8,0.2-1.04,0.53c-0.2,0.28-0.28,0.62-0.23,0.96c0.06,0.34,0.24,0.64,0.52,0.84c0.22,0.16,0.48,0.24,0.75,0.24
					c0.41,0,0.8-0.2,1.04-0.53c0.41-0.57,0.28-1.38-0.29-1.79C52.02,18.8,51.76,18.72,51.49,18.72L51.49,18.72z"/>
			</g>
			<g>
				<path class="st2" d="M51.45,15.29c0.13,0,0.26,0.04,0.37,0.12c0.28,0.2,0.35,0.6,0.14,0.89c-0.12,0.17-0.32,0.26-0.52,0.26
					c-0.13,0-0.26-0.04-0.37-0.12c-0.28-0.2-0.35-0.6-0.14-0.89C51.06,15.38,51.25,15.29,51.45,15.29 M51.45,14.63L51.45,14.63
					c-0.42,0-0.81,0.2-1.05,0.54c-0.42,0.58-0.29,1.39,0.3,1.81c0.22,0.16,0.48,0.24,0.76,0.24c0.42,0,0.81-0.2,1.05-0.54
					c0.42-0.58,0.29-1.39-0.3-1.81C51.99,14.71,51.72,14.63,51.45,14.63L51.45,14.63z"/>
			</g>
			<g>
				<path class="st2" d="M52.11,34.73c0.13,0,0.25,0.04,0.36,0.12c0.28,0.2,0.34,0.59,0.14,0.87c-0.12,0.17-0.31,0.26-0.5,0.26
					c-0.13,0-0.25-0.04-0.36-0.12c-0.28-0.2-0.34-0.59-0.14-0.87C51.73,34.82,51.92,34.73,52.11,34.73 M52.11,34.07L52.11,34.07
					c-0.41,0-0.8,0.2-1.04,0.53c-0.2,0.28-0.28,0.62-0.23,0.96c0.06,0.34,0.24,0.64,0.52,0.84c0.22,0.16,0.48,0.24,0.75,0.24
					c0.41,0,0.8-0.2,1.04-0.53c0.2-0.28,0.28-0.62,0.23-0.96c-0.06-0.34-0.24-0.64-0.52-0.84C52.64,34.15,52.38,34.07,52.11,34.07
					L52.11,34.07z"/>
			</g>
			<g>
				<path class="st2" d="M41.99,27.39c0.13,0,0.25,0.04,0.36,0.12c0.28,0.2,0.34,0.59,0.14,0.87c-0.12,0.17-0.31,0.26-0.5,0.26
					c-0.13,0-0.25-0.04-0.36-0.12c-0.28-0.2-0.34-0.59-0.14-0.87C41.6,27.48,41.79,27.39,41.99,27.39 M41.99,26.73L41.99,26.73
					c-0.41,0-0.8,0.2-1.04,0.53c-0.2,0.28-0.28,0.62-0.23,0.96c0.06,0.34,0.24,0.64,0.52,0.84c0.22,0.16,0.48,0.24,0.75,0.24
					c0.41,0,0.8-0.2,1.04-0.53c0.2-0.28,0.28-0.62,0.23-0.96c-0.06-0.34-0.24-0.64-0.52-0.84C42.52,26.81,42.26,26.73,41.99,26.73
					L41.99,26.73z"/>
			</g>
		</g>
		<g>
			<g>
				<polygon class="st2" points="55.1,44.62 54.78,43.68 68.28,39.16 67.33,36.33 61.89,36.25 65.83,32.38 64.78,29.25 65.73,28.93 
					66.97,32.65 64.29,35.29 68.05,35.34 69.54,39.79 				"/>
			</g>
			<g>
				<polygon class="st2" points="51.16,32.73 50.84,31.78 61.83,28.1 62.71,30.72 61.76,31.03 61.2,29.36 				"/>
			</g>
			<g>
				<path class="st2" d="M62.55,31.07c0.26,0,0.5,0.16,0.59,0.42c0.11,0.33-0.07,0.68-0.39,0.79c-0.07,0.02-0.13,0.03-0.2,0.03
					c-0.26,0-0.5-0.16-0.59-0.42c-0.11-0.33,0.07-0.68,0.39-0.79C62.42,31.08,62.49,31.07,62.55,31.07 M62.55,30.41L62.55,30.41
					c-0.14,0-0.28,0.02-0.41,0.07c-0.33,0.11-0.59,0.34-0.74,0.65c-0.15,0.31-0.18,0.66-0.07,0.98c0.18,0.52,0.67,0.88,1.22,0.88
					c0.14,0,0.28-0.02,0.41-0.07c0.33-0.11,0.59-0.34,0.74-0.65c0.15-0.31,0.18-0.66,0.07-0.98C63.6,30.76,63.11,30.41,62.55,30.41
					L62.55,30.41z"/>
			</g>
			<g>
				<path class="st2" d="M64.9,27.72c0.27,0,0.51,0.17,0.6,0.43c0.11,0.33-0.07,0.69-0.4,0.8c-0.07,0.02-0.13,0.03-0.2,0.03
					c-0.27,0-0.51-0.17-0.6-0.43c-0.11-0.33,0.07-0.69,0.4-0.8C64.77,27.73,64.84,27.72,64.9,27.72 M64.9,27.06
					c-0.14,0-0.28,0.02-0.41,0.07c-0.68,0.23-1.05,0.96-0.82,1.64c0.18,0.53,0.67,0.89,1.23,0.89c0.14,0,0.28-0.02,0.41-0.07
					c0.68-0.23,1.05-0.96,0.82-1.64C65.96,27.42,65.46,27.06,64.9,27.06L64.9,27.06z"/>
			</g>
			<g>
				<path class="st2" d="M54.09,43.89c0.26,0,0.5,0.16,0.59,0.42c0.11,0.33-0.07,0.68-0.39,0.79c-0.07,0.02-0.13,0.03-0.2,0.03
					c-0.26,0-0.5-0.16-0.59-0.42c-0.11-0.33,0.07-0.68,0.39-0.79C53.96,43.9,54.03,43.89,54.09,43.89 M54.09,43.23L54.09,43.23
					c-0.14,0-0.28,0.02-0.41,0.07c-0.67,0.22-1.03,0.95-0.81,1.63c0.18,0.52,0.67,0.88,1.22,0.88c0.14,0,0.28-0.02,0.41-0.07
					c0.33-0.11,0.59-0.34,0.74-0.65c0.15-0.31,0.18-0.66,0.07-0.98C55.13,43.58,54.65,43.23,54.09,43.23L54.09,43.23z"/>
			</g>
			<g>
				<path class="st2" d="M50.16,32.02c0.26,0,0.5,0.16,0.59,0.42c0.11,0.33-0.07,0.68-0.39,0.79c-0.07,0.02-0.13,0.03-0.2,0.03
					c-0.26,0-0.5-0.16-0.59-0.42c-0.11-0.33,0.07-0.68,0.39-0.79C50.03,32.03,50.1,32.02,50.16,32.02 M50.16,31.36L50.16,31.36
					c-0.14,0-0.28,0.02-0.41,0.07c-0.67,0.22-1.03,0.95-0.81,1.63c0.18,0.52,0.67,0.88,1.22,0.88c0.14,0,0.28-0.02,0.41-0.07
					c0.33-0.11,0.59-0.34,0.74-0.65c0.15-0.31,0.18-0.66,0.07-0.98C51.2,31.71,50.71,31.36,50.16,31.36L50.16,31.36z"/>
			</g>
		</g>
		<g>
			<g>
				<polygon class="st2" points="65.65,58.29 51.1,53.78 51.4,52.83 65,57.05 65.88,54.19 61.5,50.95 66.97,50.11 67.94,46.96 
					68.9,47.25 67.73,51 64.01,51.57 67.04,53.81 				"/>
			</g>
			<g>
				<polygon class="st2" points="65.4,46.94 64.45,46.64 64.97,44.96 54.85,41.82 55.15,40.87 66.22,44.31 				"/>
			</g>
			<g>
				<path class="st2" d="M64.71,47.02c0.06,0,0.12,0.01,0.18,0.03c0.33,0.1,0.51,0.45,0.41,0.78c-0.08,0.27-0.33,0.44-0.59,0.44
					c-0.06,0-0.12-0.01-0.18-0.03c-0.33-0.1-0.51-0.45-0.41-0.78C64.2,47.19,64.44,47.02,64.71,47.02 M64.71,46.35L64.71,46.35
					c-0.57,0-1.06,0.36-1.23,0.9c-0.1,0.33-0.07,0.68,0.09,0.98c0.16,0.3,0.43,0.53,0.76,0.63c0.12,0.04,0.25,0.06,0.38,0.06
					c0.57,0,1.06-0.36,1.23-0.9c0.1-0.33,0.07-0.68-0.09-0.98c-0.16-0.3-0.43-0.53-0.76-0.63C64.97,46.37,64.84,46.35,64.71,46.35
					L64.71,46.35z"/>
			</g>
			<g>
				<path class="st2" d="M68.56,45.67c0.06,0,0.13,0.01,0.19,0.03c0.34,0.1,0.52,0.46,0.42,0.79c-0.08,0.27-0.34,0.45-0.61,0.45
					c-0.06,0-0.13-0.01-0.19-0.03c-0.34-0.1-0.52-0.46-0.42-0.79C68.04,45.85,68.29,45.67,68.56,45.67 M68.56,45.01L68.56,45.01
					c-0.57,0-1.07,0.37-1.24,0.91c-0.21,0.68,0.17,1.41,0.86,1.62c0.12,0.04,0.25,0.06,0.38,0.06c0.57,0,1.07-0.37,1.24-0.91
					c0.21-0.68-0.17-1.41-0.86-1.62C68.82,45.03,68.69,45.01,68.56,45.01L68.56,45.01z"/>
			</g>
			<g>
				<path class="st2" d="M50.35,52.48c0.06,0,0.12,0.01,0.18,0.03c0.33,0.1,0.51,0.45,0.41,0.78c-0.08,0.27-0.33,0.44-0.59,0.44
					c-0.06,0-0.12-0.01-0.18-0.03c-0.33-0.1-0.51-0.45-0.41-0.78C49.84,52.65,50.09,52.48,50.35,52.48 M50.35,51.82L50.35,51.82
					c-0.57,0-1.06,0.36-1.23,0.9c-0.21,0.68,0.17,1.4,0.85,1.61c0.12,0.04,0.25,0.06,0.38,0.06c0.57,0,1.06-0.36,1.23-0.9
					c0.1-0.33,0.07-0.68-0.09-0.98c-0.16-0.3-0.43-0.53-0.76-0.63C50.61,51.84,50.48,51.82,50.35,51.82L50.35,51.82z"/>
			</g>
			<g>
				<path class="st2" d="M54.09,40.55c0.06,0,0.12,0.01,0.18,0.03c0.33,0.1,0.51,0.45,0.41,0.78c-0.08,0.27-0.33,0.44-0.59,0.44
					c-0.06,0-0.12-0.01-0.18-0.03c-0.33-0.1-0.51-0.45-0.41-0.78C53.58,40.72,53.83,40.55,54.09,40.55 M54.1,39.89L54.1,39.89
					c-0.57,0-1.06,0.36-1.23,0.9c-0.1,0.33-0.07,0.68,0.09,0.98c0.16,0.3,0.43,0.53,0.76,0.63c0.12,0.04,0.25,0.06,0.38,0.06
					c0.57,0,1.06-0.36,1.23-0.9c0.21-0.68-0.17-1.4-0.85-1.61C54.35,39.91,54.22,39.89,54.1,39.89L54.1,39.89z"/>
			</g>
		</g>
		<g>
			<g>
				<polygon class="st2" points="51.68,71.04 42.51,58.88 43.3,58.28 51.88,69.64 54.27,67.84 52.61,62.66 57.53,65.17 60.17,63.18 
					60.77,63.97 57.63,66.34 54.28,64.63 55.43,68.21 				"/>
			</g>
			<g>
				<polygon class="st2" points="58.12,61.68 57.52,60.88 58.92,59.82 52.54,51.37 53.33,50.77 60.31,60.02 				"/>
			</g>
			<g>
				<path class="st2" d="M57.14,61.22c0.19,0,0.37,0.09,0.5,0.25c0.21,0.27,0.15,0.66-0.12,0.87c-0.11,0.08-0.24,0.13-0.37,0.13
					c-0.19,0-0.37-0.09-0.5-0.25c-0.21-0.27-0.15-0.66,0.12-0.87C56.88,61.26,57.01,61.22,57.14,61.22 M57.14,60.56L57.14,60.56
					c-0.28,0-0.55,0.09-0.77,0.26c-0.56,0.43-0.68,1.23-0.25,1.8c0.24,0.32,0.62,0.51,1.03,0.51c0.28,0,0.55-0.09,0.77-0.26
					c0.27-0.21,0.45-0.51,0.5-0.85c0.05-0.34-0.04-0.68-0.25-0.95C57.93,60.75,57.54,60.56,57.14,60.56L57.14,60.56z"/>
			</g>
			<g>
				<path class="st2" d="M61.05,62.38c0.19,0,0.38,0.09,0.51,0.25c0.21,0.28,0.16,0.68-0.12,0.89c-0.11,0.09-0.25,0.13-0.38,0.13
					c-0.19,0-0.38-0.09-0.51-0.25c-0.21-0.28-0.16-0.68,0.12-0.89C60.78,62.42,60.92,62.38,61.05,62.38 M61.05,61.71L61.05,61.71
					c-0.28,0-0.55,0.09-0.78,0.26c-0.57,0.43-0.69,1.25-0.25,1.82c0.24,0.32,0.63,0.52,1.04,0.52c0.28,0,0.55-0.09,0.78-0.26
					c0.28-0.21,0.46-0.51,0.5-0.86c0.05-0.34-0.04-0.69-0.25-0.96C61.84,61.91,61.45,61.71,61.05,61.71L61.05,61.71z"/>
			</g>
			<g>
				<path class="st2" d="M42.3,57.27c0.19,0,0.37,0.09,0.5,0.25c0.21,0.27,0.15,0.66-0.12,0.87c-0.11,0.08-0.24,0.13-0.37,0.13
					c-0.19,0-0.37-0.09-0.5-0.25c-0.21-0.27-0.15-0.66,0.12-0.87C42.04,57.31,42.17,57.27,42.3,57.27 M42.3,56.61L42.3,56.61
					c-0.28,0-0.55,0.09-0.77,0.26c-0.56,0.43-0.68,1.23-0.25,1.8c0.24,0.32,0.62,0.51,1.03,0.51c0.28,0,0.55-0.09,0.77-0.26
					c0.27-0.21,0.45-0.51,0.5-0.85c0.05-0.34-0.04-0.68-0.25-0.95C43.08,56.8,42.7,56.61,42.3,56.61L42.3,56.61z"/>
			</g>
			<g>
				<path class="st2" d="M52.3,49.77c0.19,0,0.37,0.09,0.5,0.25c0.21,0.27,0.15,0.66-0.12,0.87c-0.11,0.08-0.24,0.13-0.37,0.13
					c-0.19,0-0.37-0.09-0.5-0.25c-0.21-0.27-0.15-0.66,0.12-0.87C52.04,49.81,52.17,49.77,52.3,49.77 M52.3,49.11L52.3,49.11
					c-0.28,0-0.55,0.09-0.77,0.26c-0.27,0.21-0.45,0.51-0.5,0.85c-0.05,0.34,0.04,0.68,0.25,0.95c0.24,0.32,0.62,0.51,1.03,0.51
					c0.28,0,0.55-0.09,0.77-0.26c0.57-0.43,0.68-1.23,0.25-1.8C53.09,49.3,52.71,49.11,52.3,49.11L52.3,49.11z"/>
			</g>
		</g>
		<g>
			<g>
				<polygon class="st2" points="32.9,73.23 32.56,58 33.55,57.98 33.87,72.21 36.86,72.14 38.55,66.96 41.08,71.88 44.38,71.8 
					44.4,72.8 40.48,72.89 38.76,69.54 37.59,73.12 				"/>
			</g>
			<g>
				<polygon class="st2" points="43.59,69.39 43.57,68.39 45.33,68.35 45.09,57.76 46.08,57.74 46.34,69.32 				"/>
			</g>
			<g>
				<path class="st2" d="M42.71,68.33c0.34,0,0.61,0.27,0.62,0.61c0.01,0.34-0.26,0.63-0.61,0.63c0,0-0.01,0-0.01,0
					c-0.34,0-0.61-0.27-0.62-0.61c-0.01-0.34,0.26-0.63,0.61-0.63C42.7,68.33,42.7,68.33,42.71,68.33 M42.71,67.67L42.71,67.67
					l-0.03,0c-0.34,0.01-0.66,0.15-0.9,0.4c-0.24,0.25-0.36,0.57-0.36,0.92c0.02,0.69,0.59,1.26,1.28,1.26
					c0.37-0.01,0.69-0.15,0.93-0.4c0.24-0.25,0.36-0.57,0.36-0.92C43.97,68.23,43.4,67.67,42.71,67.67L42.71,67.67z"/>
			</g>
			<g>
				<path class="st2" d="M45.19,71.55c0.34,0,0.63,0.27,0.63,0.62c0.01,0.35-0.27,0.64-0.62,0.65c0,0-0.01,0-0.01,0
					c-0.34,0-0.63-0.27-0.63-0.62c-0.01-0.35,0.27-0.64,0.62-0.65C45.18,71.55,45.19,71.55,45.19,71.55 M45.19,70.89L45.19,70.89
					l-0.03,0c-0.35,0.01-0.67,0.15-0.91,0.4c-0.24,0.25-0.37,0.58-0.36,0.93c0.02,0.7,0.6,1.27,1.3,1.27
					c0.75-0.02,1.31-0.61,1.3-1.33C46.47,71.45,45.89,70.89,45.19,70.89L45.19,70.89z"/>
			</g>
			<g>
				<path class="st2" d="M32.96,56.45c0.34,0,0.61,0.27,0.62,0.61c0.01,0.34-0.26,0.63-0.61,0.63c0,0-0.01,0-0.01,0
					c-0.34,0-0.61-0.27-0.62-0.61c-0.01-0.34,0.26-0.63,0.61-0.63C32.95,56.45,32.96,56.45,32.96,56.45 M32.96,55.79L32.96,55.79
					l-0.03,0c-0.34,0.01-0.66,0.15-0.9,0.4c-0.24,0.25-0.36,0.57-0.36,0.92c0.02,0.69,0.59,1.26,1.28,1.26
					c0.37-0.01,0.69-0.15,0.93-0.4c0.24-0.25,0.36-0.57,0.36-0.92C34.23,56.35,33.66,55.79,32.96,55.79L32.96,55.79z"/>
			</g>
			<g>
				<path class="st2" d="M45.47,56.21c0.34,0,0.61,0.27,0.62,0.61c0.01,0.34-0.26,0.63-0.61,0.63c0,0-0.01,0-0.01,0
					c-0.34,0-0.61-0.27-0.62-0.61c-0.01-0.34,0.26-0.63,0.61-0.63C45.46,56.21,45.46,56.21,45.47,56.21 M45.47,55.55L45.47,55.55
					l-0.03,0c-0.34,0.01-0.66,0.15-0.9,0.4c-0.24,0.25-0.36,0.57-0.36,0.92c0.02,0.69,0.59,1.26,1.28,1.26
					c0.74-0.02,1.3-0.61,1.28-1.31C46.73,56.11,46.16,55.55,45.47,55.55L45.47,55.55z"/>
			</g>
		</g>
		<g>
			<g>
				<polygon class="st2" points="25.96,70.4 22.73,68.18 23.28,64.46 20.25,66.69 16.38,64.03 24.99,51.47 25.81,52.04 17.76,63.78 
					20.23,65.47 24.62,62.25 23.8,67.71 26.53,69.58 				"/>
			</g>
			<g>
				<polygon class="st2" points="29.57,68.72 27.3,67.16 27.86,66.34 29.31,67.33 35.31,58.6 36.13,59.16 				"/>
			</g>
			<g>
				<path class="st2" d="M26.83,65.67c0.12,0,0.24,0.04,0.35,0.11c0.28,0.19,0.35,0.58,0.16,0.86c-0.12,0.18-0.31,0.27-0.51,0.27
					c-0.12,0-0.24-0.04-0.35-0.11c-0.28-0.19-0.35-0.58-0.16-0.86C26.44,65.76,26.64,65.67,26.83,65.67 M26.83,65L26.83,65
					c-0.42,0-0.82,0.21-1.06,0.56c-0.4,0.58-0.25,1.39,0.33,1.79c0.21,0.15,0.47,0.23,0.73,0.23c0.42,0,0.82-0.21,1.06-0.56
					c0.19-0.28,0.27-0.62,0.2-0.96c-0.06-0.34-0.25-0.63-0.54-0.82C27.35,65.08,27.09,65,26.83,65L26.83,65z"/>
			</g>
			<g>
				<path class="st2" d="M26.96,69.73c0.12,0,0.25,0.04,0.36,0.11c0.29,0.2,0.36,0.59,0.16,0.88C27.36,70.9,27.17,71,26.96,71
					c-0.12,0-0.25-0.04-0.36-0.11c-0.29-0.2-0.36-0.59-0.16-0.88C26.56,69.83,26.76,69.73,26.96,69.73 M26.96,69.07
					c-0.43,0-0.83,0.21-1.07,0.56c-0.4,0.59-0.25,1.4,0.34,1.81c0.22,0.15,0.47,0.23,0.73,0.23c0.43,0,0.83-0.21,1.07-0.56
					c0.4-0.59,0.25-1.4-0.34-1.81C27.48,69.14,27.23,69.07,26.96,69.07L26.96,69.07z"/>
			</g>
			<g>
				<path class="st2" d="M25.87,50.34c0.12,0,0.24,0.04,0.35,0.11c0.28,0.19,0.35,0.58,0.16,0.86c-0.12,0.18-0.31,0.27-0.51,0.27
					c-0.12,0-0.24-0.04-0.35-0.11c-0.28-0.19-0.35-0.58-0.16-0.86C25.47,50.43,25.67,50.34,25.87,50.34 M25.87,49.67L25.87,49.67
					c-0.42,0-0.82,0.21-1.06,0.56c-0.4,0.58-0.25,1.39,0.33,1.79c0.21,0.15,0.47,0.23,0.73,0.23c0.42,0,0.82-0.21,1.06-0.56
					c0.19-0.28,0.27-0.62,0.2-0.96c-0.06-0.34-0.25-0.63-0.54-0.82C26.38,49.75,26.13,49.67,25.87,49.67L25.87,49.67z"/>
			</g>
			<g>
				<path class="st2" d="M36.15,57.44c0.12,0,0.24,0.04,0.35,0.11c0.28,0.19,0.35,0.58,0.16,0.86c-0.12,0.18-0.31,0.27-0.51,0.27
					c-0.12,0-0.24-0.04-0.35-0.11c-0.28-0.19-0.35-0.58-0.16-0.86C35.76,57.54,35.96,57.44,36.15,57.44 M36.15,56.78L36.15,56.78
					c-0.42,0-0.82,0.21-1.06,0.56c-0.4,0.58-0.25,1.38,0.33,1.79c0.21,0.15,0.47,0.23,0.73,0.23c0.42,0,0.82-0.21,1.06-0.56
					c0.4-0.58,0.25-1.38-0.33-1.79C36.66,56.86,36.41,56.78,36.15,56.78L36.15,56.78z"/>
			</g>
		</g>
		<g>
			<g>
				<polygon class="st2" points="12.4,57.68 11.07,53.99 13.69,51.3 9.93,51.33 8.34,46.92 22.67,41.76 23.01,42.69 9.61,47.52 
					10.62,50.33 16.07,50.28 12.21,54.24 13.33,57.35 				"/>
			</g>
			<g>
				<polygon class="st2" points="16.31,58.42 15.38,55.83 16.31,55.5 16.91,57.15 26.88,53.56 27.21,54.5 				"/>
			</g>
			<g>
				<path class="st2" d="M15.51,54.23c0.25,0,0.49,0.16,0.58,0.41c0.12,0.32-0.05,0.68-0.37,0.79c-0.07,0.03-0.14,0.04-0.21,0.04
					c-0.25,0-0.49-0.16-0.58-0.41c-0.12-0.32,0.05-0.68,0.37-0.79C15.37,54.25,15.44,54.23,15.51,54.23 M15.51,53.57L15.51,53.57
					c-0.15,0-0.3,0.03-0.44,0.08c-0.32,0.12-0.58,0.35-0.73,0.66c-0.15,0.31-0.16,0.66-0.05,0.98c0.18,0.51,0.67,0.85,1.21,0.85
					c0.15,0,0.29-0.03,0.44-0.08c0.32-0.12,0.58-0.35,0.73-0.66c0.15-0.31,0.16-0.66,0.05-0.98C16.53,53.91,16.05,53.57,15.51,53.57
					L15.51,53.57z"/>
			</g>
			<g>
				<path class="st2" d="M13.23,57.61c0.26,0,0.5,0.16,0.6,0.42c0.12,0.33-0.05,0.69-0.38,0.81c-0.07,0.03-0.14,0.04-0.22,0.04
					c-0.26,0-0.5-0.16-0.6-0.42c-0.12-0.33,0.05-0.69,0.38-0.81C13.09,57.62,13.16,57.61,13.23,57.61 M13.23,56.94L13.23,56.94
					c-0.15,0-0.3,0.03-0.44,0.08c-0.67,0.24-1.02,0.99-0.78,1.66c0.19,0.51,0.68,0.86,1.22,0.86c0.15,0,0.3-0.03,0.44-0.08
					c0.33-0.12,0.59-0.36,0.73-0.67c0.15-0.31,0.16-0.67,0.05-0.99C14.27,57.29,13.78,56.94,13.23,56.94L13.23,56.94z"/>
			</g>
			<g>
				<path class="st2" d="M23.68,41.23c0.25,0,0.49,0.16,0.58,0.41c0.12,0.32-0.05,0.68-0.37,0.79c-0.07,0.03-0.14,0.04-0.21,0.04
					c-0.25,0-0.49-0.16-0.58-0.41c-0.12-0.32,0.05-0.68,0.37-0.79C23.53,41.24,23.61,41.23,23.68,41.23 M23.68,40.56
					c-0.15,0-0.3,0.03-0.44,0.08c-0.67,0.24-1.01,0.98-0.77,1.64c0.18,0.51,0.67,0.85,1.21,0.85c0.15,0,0.29-0.03,0.44-0.08
					c0.32-0.12,0.58-0.35,0.73-0.66c0.15-0.31,0.16-0.66,0.05-0.98C24.7,40.9,24.22,40.56,23.68,40.56L23.68,40.56z"/>
			</g>
			<g>
				<path class="st2" d="M27.87,53c0.25,0,0.49,0.16,0.58,0.41c0.12,0.32-0.05,0.68-0.37,0.79c-0.07,0.03-0.14,0.04-0.21,0.04
					c-0.25,0-0.49-0.16-0.58-0.41c-0.12-0.32,0.05-0.68,0.37-0.79C27.73,53.02,27.8,53,27.87,53 M27.87,52.34
					c-0.15,0-0.29,0.03-0.44,0.08c-0.67,0.24-1.01,0.98-0.77,1.64c0.18,0.51,0.67,0.85,1.21,0.85c0.15,0,0.29-0.03,0.44-0.08
					c0.67-0.24,1.01-0.98,0.77-1.64C28.9,52.68,28.41,52.34,27.87,52.34L27.87,52.34z"/>
			</g>
		</g>
		<g>
			<g>
				<polygon class="st2" points="9.77,39.71 8.81,39.44 9.89,35.67 13.6,35.01 10.52,32.84 11.81,28.33 26.46,32.51 26.18,33.47 
					12.49,29.56 11.67,32.43 16.12,35.58 10.68,36.54 				"/>
			</g>
			<g>
				<polygon class="st2" points="22.7,45.51 11.56,42.33 12.31,39.68 13.27,39.95 12.79,41.64 22.98,44.55 				"/>
			</g>
			<g>
				<path class="st2" d="M12.99,38.34c0.06,0,0.11,0.01,0.17,0.02c0.33,0.09,0.52,0.44,0.43,0.77c-0.08,0.27-0.33,0.45-0.6,0.45
					c-0.06,0-0.11-0.01-0.17-0.02c-0.33-0.09-0.52-0.44-0.43-0.77C12.47,38.52,12.72,38.34,12.99,38.34 M12.99,37.68L12.99,37.68
					c-0.57,0-1.08,0.38-1.23,0.93c-0.19,0.68,0.2,1.39,0.88,1.59c0.11,0.03,0.23,0.05,0.35,0.05c0.57,0,1.08-0.38,1.23-0.93
					c0.19-0.68-0.2-1.39-0.88-1.59C13.23,37.69,13.11,37.68,12.99,37.68L12.99,37.68z"/>
			</g>
			<g>
				<path class="st2" d="M9.17,39.74c0.06,0,0.12,0.01,0.17,0.02c0.34,0.1,0.53,0.45,0.44,0.78c-0.08,0.28-0.33,0.46-0.61,0.46
					c-0.06,0-0.12-0.01-0.17-0.02c-0.34-0.1-0.53-0.45-0.44-0.78C8.64,39.93,8.89,39.74,9.17,39.74 M9.17,39.08L9.17,39.08
					c-0.58,0-1.09,0.39-1.25,0.94c-0.2,0.69,0.2,1.41,0.89,1.6c0.12,0.03,0.24,0.05,0.36,0.05c0.58,0,1.09-0.39,1.25-0.94
					c0.1-0.33,0.05-0.68-0.11-0.99c-0.17-0.3-0.45-0.52-0.78-0.62C9.41,39.1,9.29,39.08,9.17,39.08L9.17,39.08z"/>
			</g>
			<g>
				<path class="st2" d="M27.22,32.55c0.06,0,0.11,0.01,0.17,0.02c0.33,0.09,0.52,0.44,0.43,0.77c-0.08,0.27-0.33,0.45-0.6,0.45
					c-0.06,0-0.11-0.01-0.17-0.02c-0.33-0.09-0.52-0.44-0.43-0.77C26.7,32.73,26.95,32.55,27.22,32.55 M27.22,31.89L27.22,31.89
					c-0.57,0-1.08,0.38-1.23,0.93c-0.19,0.68,0.2,1.39,0.88,1.59c0.11,0.03,0.23,0.05,0.35,0.05c0.57,0,1.08-0.38,1.23-0.93
					c0.19-0.68-0.2-1.39-0.88-1.59C27.46,31.91,27.34,31.89,27.22,31.89L27.22,31.89z"/>
			</g>
			<g>
				<path class="st2" d="M23.75,44.56c0.06,0,0.11,0.01,0.17,0.02c0.33,0.09,0.52,0.44,0.43,0.77c-0.08,0.27-0.33,0.45-0.6,0.45
					c-0.06,0-0.11-0.01-0.17-0.02c-0.33-0.09-0.52-0.44-0.43-0.77C23.23,44.74,23.48,44.56,23.75,44.56 M23.75,43.9
					c-0.57,0-1.08,0.38-1.23,0.93c-0.09,0.33-0.05,0.68,0.11,0.98c0.17,0.3,0.44,0.52,0.77,0.61c0.11,0.03,0.23,0.05,0.35,0.05
					c0.57,0,1.08-0.38,1.23-0.93c0.19-0.68-0.2-1.39-0.88-1.59C23.99,43.92,23.87,43.9,23.75,43.9L23.75,43.9z"/>
			</g>
		</g>
		<g>
			<g>
				<polygon class="st2" points="34.15,27.84 25.32,16.67 22.98,18.52 24.75,23.67 19.77,21.27 17.18,23.32 16.56,22.54 
					19.64,20.11 23.03,21.74 21.81,18.18 25.48,15.27 34.93,27.22 				"/>
			</g>
			<g>
				<polygon class="st2" points="24.29,35.57 17.1,26.48 19.27,24.77 19.88,25.55 18.5,26.65 25.07,34.96 				"/>
			</g>
			<g>
				<path class="st2" d="M20.23,23.97c0.18,0,0.36,0.08,0.49,0.24c0.21,0.27,0.17,0.66-0.1,0.87c-0.11,0.09-0.25,0.13-0.38,0.13
					c-0.18,0-0.37-0.08-0.49-0.24c-0.21-0.27-0.17-0.66,0.1-0.87C19.96,24.01,20.1,23.97,20.23,23.97 M20.23,23.3
					c-0.29,0-0.57,0.1-0.8,0.28c-0.27,0.21-0.44,0.52-0.48,0.86c-0.04,0.34,0.06,0.68,0.27,0.95c0.25,0.31,0.61,0.49,1.01,0.49
					c0.29,0,0.57-0.1,0.8-0.28c0.56-0.44,0.65-1.25,0.21-1.8C21,23.48,20.63,23.3,20.23,23.3L20.23,23.3z"/>
			</g>
			<g>
				<path class="st2" d="M16.3,22.87c0.19,0,0.37,0.08,0.5,0.24c0.22,0.28,0.17,0.67-0.1,0.89c-0.12,0.09-0.26,0.14-0.39,0.14
					c-0.19,0-0.37-0.08-0.5-0.24c-0.22-0.28-0.17-0.67,0.1-0.89C16.02,22.92,16.16,22.87,16.3,22.87 M16.3,22.21L16.3,22.21
					c-0.29,0-0.58,0.1-0.8,0.28c-0.27,0.22-0.44,0.52-0.48,0.87c-0.04,0.34,0.06,0.68,0.27,0.96c0.25,0.31,0.62,0.49,1.02,0.49
					c0.29,0,0.58-0.1,0.8-0.28c0.56-0.44,0.66-1.26,0.21-1.82C17.07,22.39,16.7,22.21,16.3,22.21L16.3,22.21z"/>
			</g>
			<g>
				<path class="st2" d="M35.16,27.58c0.18,0,0.36,0.08,0.49,0.24c0.21,0.27,0.17,0.66-0.1,0.87c-0.11,0.09-0.25,0.13-0.38,0.13
					c-0.18,0-0.37-0.08-0.49-0.24c-0.21-0.27-0.17-0.66,0.1-0.87C34.89,27.63,35.03,27.58,35.16,27.58 M35.16,26.92
					c-0.29,0-0.57,0.1-0.8,0.28c-0.56,0.44-0.65,1.25-0.21,1.8c0.25,0.31,0.61,0.49,1.01,0.49c0.29,0,0.57-0.1,0.8-0.28
					c0.27-0.21,0.44-0.52,0.48-0.86c0.04-0.34-0.06-0.68-0.27-0.95C35.93,27.1,35.56,26.92,35.16,26.92L35.16,26.92z"/>
			</g>
			<g>
				<path class="st2" d="M25.33,35.3c0.18,0,0.36,0.08,0.49,0.24c0.21,0.27,0.17,0.66-0.1,0.87c-0.11,0.09-0.25,0.13-0.38,0.13
					c-0.18,0-0.36-0.08-0.49-0.24c-0.21-0.27-0.17-0.66,0.1-0.87C25.06,35.35,25.19,35.3,25.33,35.3 M25.33,34.64
					c-0.29,0-0.57,0.1-0.8,0.28c-0.56,0.44-0.65,1.25-0.21,1.8c0.25,0.31,0.61,0.49,1.01,0.49c0.29,0,0.57-0.1,0.8-0.28
					c0.27-0.21,0.44-0.52,0.48-0.86c0.04-0.34-0.06-0.68-0.27-0.95C26.09,34.82,25.72,34.64,25.33,34.64L25.33,34.64z"/>
			</g>
		</g>
	</g>
</g>
</svg>
